<svg width="530" height="51" viewBox="0 0 530 51" fill="none" xmlns="http://www.w3.org/2000/svg">
<path d="M512.914 23.06V27.2217C512.914 39.0928 514.099 43.1863 516.887 43.1863C518.978 43.1863 519.954 40.7984 520.163 34.3171H529.015C528.946 45.0966 523.857 50.4863 517.096 50.4863C506.989 50.4863 502.946 40.5937 502.946 25.2432C502.946 9.89259 506.989 0 517.096 0C523.857 0 528.946 5.38976 529.015 16.1693H520.163C519.954 9.68792 518.978 7.30005 516.887 7.30005C514.099 7.30005 512.914 11.3935 512.914 23.06Z" fill="black"/>
<path d="M490.105 49.8722V0.613953H499.446V49.8722H490.105Z" fill="black"/>
<path d="M459.473 49.8722V0.613953H468.814V20.9449H476.202V0.613953H485.612V49.8722H476.202V27.9721H468.814V49.8722H459.473Z" fill="black"/>
<path d="M441.909 29.3366H439.748V49.8722H430.408V0.613953H441.909C450.343 0.613953 456.617 5.18501 456.617 14.9412C456.617 24.6973 450.343 29.3366 441.909 29.3366ZM441.212 7.57288H439.748V22.4459H441.212C445.046 22.4459 447.207 19.9216 447.207 14.9412C447.207 9.96075 445.046 7.57288 441.212 7.57288Z" fill="black"/>
<path d="M400.273 49.8722L408.219 0.613953H419.999L427.876 49.8722H418.675L417.002 38.3423H409.335L407.662 49.8722H400.273ZM410.311 31.4516H415.956L413.099 12.0757L410.311 31.4516Z" fill="black"/>
<path d="M382.91 28.1768V49.8722H373.569V0.613953H385.349C393.505 0.613953 399.708 4.91212 399.708 14.3271C399.708 19.6487 397.408 23.4693 393.923 25.7889L399.987 49.8722H390.229L385.349 28.1085C385.001 28.1768 383.258 28.1768 382.91 28.1768ZM384.095 7.36821H382.91V21.8319H384.095C388.207 21.8319 390.507 19.444 390.507 14.6683C390.507 9.75608 388.137 7.36821 384.095 7.36821Z" fill="black"/>
<path d="M356.861 43.0498C359.58 43.0498 360.695 39.161 360.695 34.1124V31.9974H356.861V25.1749H369.687V49.8723H365.156L363.622 44.3461C362.159 47.962 359.789 50.4863 355.606 50.4863C346.894 50.4863 342.642 40.662 342.642 25.2432C342.642 9.89259 346.894 0 357.279 0C364.25 0 369.338 5.38976 369.477 16.1693H360.486C360.277 9.68792 359.231 7.30005 356.931 7.30005C354.003 7.30005 352.609 11.3935 352.609 23.8787V26.4712C352.609 39.0928 353.934 43.0498 356.861 43.0498Z" fill="black"/>
<path d="M340.168 25.2432C340.168 40.5255 335.916 50.4863 326.158 50.4863C316.33 50.4863 312.078 40.5255 312.078 25.2432C312.078 9.89259 316.33 0 326.158 0C335.916 0 340.168 9.89259 340.168 25.2432ZM321.976 26.6759C321.976 39.161 323.23 43.1863 326.158 43.1863C329.016 43.1863 330.27 39.161 330.27 26.6759V23.8787C330.27 11.3253 329.016 7.30005 326.158 7.30005C323.23 7.30005 321.976 11.3253 321.976 23.8787V26.6759Z" fill="black"/>
<path d="M288.918 7.64111V0.613953H312.478V7.64111H305.368V49.8722H296.028V7.64111H288.918Z" fill="black"/>
<path d="M289.32 25.2432C289.32 40.5255 285.068 50.4863 275.309 50.4863C265.481 50.4863 261.229 40.5255 261.229 25.2432C261.229 9.89259 265.481 0 275.309 0C285.068 0 289.32 9.89259 289.32 25.2432ZM271.127 26.6759C271.127 39.161 272.382 43.1863 275.309 43.1863C278.167 43.1863 279.422 39.161 279.422 26.6759V23.8787C279.422 11.3253 278.167 7.30005 275.309 7.30005C272.382 7.30005 271.127 11.3253 271.127 23.8787V26.6759Z" fill="black"/>
<path d="M231.643 49.8722V0.613953H240.983V20.9449H248.372V0.613953H257.782V49.8722H248.372V27.9721H240.983V49.8722H231.643Z" fill="black"/>
<path d="M214.078 29.3366H211.917V49.8722H202.577V0.613953H214.078C222.512 0.613953 228.785 5.18501 228.785 14.9412C228.785 24.6973 222.512 29.3366 214.078 29.3366ZM213.381 7.57288H211.917V22.4459H213.381C217.214 22.4459 219.375 19.9216 219.375 14.9412C219.375 9.96075 217.214 7.57288 213.381 7.57288Z" fill="black"/>
<path d="M172.653 0.613953L178.229 19.9216L183.805 0.613953H191.333L182.063 31.2469V49.8722H172.723V31.2469L163.382 0.613953H172.653Z" fill="black"/>
<path d="M146.774 28.1768V49.8722H137.434V0.613953H149.214C157.369 0.613953 163.573 4.91212 163.573 14.3271C163.573 19.6487 161.272 23.4693 157.787 25.7889L163.851 49.8722H154.093L149.214 28.1085C148.865 28.1768 147.123 28.1768 146.774 28.1768ZM147.959 7.36821H146.774V21.8319H147.959C152.071 21.8319 154.372 19.444 154.372 14.6683C154.372 9.75608 152.002 7.36821 147.959 7.36821Z" fill="black"/>
<path d="M107.299 49.8722L115.245 0.613953H127.025L134.901 49.8722H125.701L124.028 38.3423H116.36L114.687 49.8722H107.299ZM117.336 31.4516H122.982L120.124 12.0757L117.336 31.4516Z" fill="black"/>
<path d="M90.2139 49.8722H84.777L79.4795 13.5084V49.8722H71.8818V0.613953H84.6376L88.541 28.5179L92.7929 0.613953H104.852V49.8722H95.7902V13.5084L90.2139 49.8722Z" fill="black"/>
<path d="M57.9955 49.8722V0.613953H67.3358V49.8722H57.9955Z" fill="black"/>
<path d="M38.406 28.1768V49.8722H29.0657V0.613953H40.8456C49.0009 0.613953 55.2045 4.91212 55.2045 14.3271C55.2045 19.6487 52.9043 23.4693 49.4191 25.7889L55.4833 49.8722H45.7248L40.8456 28.1085C40.4971 28.1768 38.7545 28.1768 38.406 28.1768ZM39.5909 7.36821H38.406V21.8319H39.5909C43.7034 21.8319 46.0036 19.444 46.0036 14.6683C46.0036 9.75608 43.6337 7.36821 39.5909 7.36821Z" fill="black"/>
<path d="M11.5011 29.3366H9.34028V49.8722H0V0.613953H11.5011C19.9352 0.613953 26.2085 5.18501 26.2085 14.9412C26.2085 24.6973 19.9352 29.3366 11.5011 29.3366ZM10.8041 7.57288H9.34028V22.4459H10.8041C14.6378 22.4459 16.7986 19.9216 16.7986 14.9412C16.7986 9.96075 14.6378 7.57288 10.8041 7.57288Z" fill="black"/>
</svg>
